<svg width="17" height="14" viewBox="0 0 17 14" fill="none" xmlns="http://www.w3.org/2000/svg">
<path d="M16.5953 5.66973L11.0001 0.401318C10.7457 0.149248 10.3941 0.00456483 10.0248 0.00010661C9.65559 -0.00435875 9.30003 0.131613 9.03886 0.377426C8.77768 0.623134 8.6328 0.957823 8.63732 1.30545C8.64183 1.65308 8.79512 1.98441 9.0626 2.2241L12.3699 5.3337H1.36993C0.880528 5.3337 0.428243 5.57963 0.183526 5.97872C-0.0611754 6.37781 -0.0611754 6.86945 0.183526 7.26854C0.428228 7.66764 0.880528 7.91355 1.36993 7.91355H12.3392L9.0626 11.004C8.73098 11.3324 8.60685 11.8006 8.73551 12.2373C8.86414 12.674 9.2267 13.0151 9.69061 13.1359C10.1544 13.2565 10.6516 13.1392 11.0002 12.8268L16.5953 7.55835C16.8532 7.317 16.9976 6.98847 16.9964 6.64619C16.9973 6.63547 16.9973 6.62476 16.9964 6.61415C16.9972 6.60355 16.9972 6.59283 16.9964 6.58211C16.9963 6.24006 16.852 5.91198 16.5953 5.66995L16.5953 5.66973Z" fill="white"/>
</svg>
